<svg xmlns="http://www.w3.org/2000/svg" viewBox="0 0 512 512">
  <rect width="512" height="512" rx="80" fill="#111111"/>
  <!-- Sound waves -->
  <g fill="none" stroke="#00c853" stroke-linecap="round">
    <circle cx="256" cy="256" r="60" stroke-width="28"/>
    <circle cx="256" cy="256" r="110" stroke-width="20" opacity="0.75"/>
    <circle cx="256" cy="256" r="165" stroke-width="14" opacity="0.45"/>
  </g>
  <!-- Center dot -->
  <circle cx="256" cy="256" r="28" fill="#00c853"/>
  <!-- Bee overlay -->
  <g transform="translate(256,256) scale(2.3) translate(-55.26441,-48.327019)">
    <g transform="translate(-50.211156,-96.737874)">
      <path fill="#ffffff" d="m 94.630247,193.13509 c -0.42193,-0.34166 -0.37336,-0.76797 0.36684,-3.22003 1.25124,-4.14498 1.64265,-6.09624 2.19992,-10.96722 0.34668,-3.03024 0.35397,-2.97702 -0.99284,-7.24848 -0.65862,-2.08883 -1.69731,-5.34569 -2.30819,-7.23746 -0.61089,-1.89177 -1.149,-3.59918 -1.19581,-3.79424 -0.21303,-0.88771 0.76627,-2.84689 5.85794,-11.71932 0.29299,-0.51054 0.31052,-0.62454 0.18314,-1.19062 -0.0775,-0.34432 -0.1807,-0.92368 -0.22939,-1.28749 -0.16295,-1.21742 -0.2501,-1.28143 -0.62114,-0.45621 -1.26294,2.80887 -1.51664,3.24892 -2.47483,4.29267 -2.27916,2.48269 -5.26902,5.42971 -9.0815,8.95139 -0.63188,0.58368 -0.41123,-0.40149 -1.8321,8.18038 -0.47585,2.87404 -0.98377,5.70177 -1.12871,6.28386 -0.29342,1.17837 -0.47654,1.4781 -3.14051,5.14032 -3.62345,4.98125 -5.63844,7.18817 -8.496,9.30527 -2.56364,1.89934 -2.8139,2.05041 -3.3148,2.00096 -0.59435,-0.0587 -1.02459,-0.63044 -0.81709,-1.08585 0.082,-0.17993 1.04627,-0.95621 2.17271,-1.74911 3.1466,-2.21487 4.20666,-3.38226 8.63617,-9.51055 0.99923,-1.38245 1.92136,-2.7219 2.04918,-2.97657 0.12782,-0.25466 0.42444,-1.41552 0.65915,-2.57968 0.23471,-1.16417 0.81267,-3.90261 1.28434,-6.08542 0.47168,-2.18281 1.03179,-4.82251 1.24469,-5.866 0.2129,-1.04349 0.49885,-2.14482 0.63545,-2.4474 0.38579,-0.85459 3.38524,-3.71676 8.03346,-7.66578 l 1.9912,-1.69168 0.29,-2.07863 c 0.1595,-1.14325 0.28923,-2.15184 0.28829,-2.24131 -0.002,-0.17143 -0.92868,-0.69908 -1.22014,-0.69459 -0.0938,0.001 -0.34923,0.31029 -0.56751,0.68632 -1.18982,2.04973 -4.13001,5.65451 -6.66749,8.17459 -4.29947,4.27 -8.65036,7.20464 -14.17969,9.56409 -4.71752,2.01303 -11.014013,3.27651 -12.738201,2.5561 -1.362813,-0.56942 -1.154024,-2.24539 0.760436,-6.10412 3.381005,-6.81464 9.758755,-13.22372 17.082235,-17.16616 4.22647,-2.27523 8.28891,-3.53556 12.89844,-4.00161 l 0.72761,-0.0736 0.24336,-1.00935 c 0.13385,-0.55514 0.37777,-1.31327 0.54205,-1.68473 l 0.29868,-0.67538 -2.0634,-0.43364 c -9.51674,-2.00002 -18.29518,-4.40317 -22.63476,-6.1964 -5.277149,-2.18066 -10.193244,-5.89091 -13.570219,-10.24165 -3.253739,-4.19196 -4.284647,-7.38838 -3.138095,-9.72995 1.202612,-2.45605 4.443674,-3.09648 9.874222,-1.95111 8.255902,1.74126 20.037682,8.59247 29.945152,17.41337 0.96027,0.85496 2.80574,2.58372 4.10104,3.8417 l 2.35509,2.28724 1.25677,-0.63423 c 1.76968,-0.89307 2.618143,-1.08967 4.696363,-1.08819 1.29039,9.2e-4 1.91797,0.0619 2.51354,0.24438 1.0771,0.32996 2.50759,1.05276 3.30246,1.66867 0.36115,0.27983 0.70329,0.47995 0.76031,0.44471 0.057,-0.0352 0.2652,-0.39393 0.4626,-0.79709 0.64259,-1.31233 1.8635,-2.42158 3.09582,-2.81268 l 0.47744,-0.15152 0.0735,-2.74095 c 0.10509,-3.9195 0.58903,-6.42374 1.80684,-9.34986 1.39646,-3.35533 3.72544,-6.19924 6.68978,-8.16883 1.26178,-0.83836 3.38394,-1.95715 3.71241,-1.95715 0.34357,0 0.85166,0.55173 0.85166,0.92482 0,0.65525 -0.13565,0.7907 -1.41528,1.4132 -2.30706,1.12232 -4.5597,2.99171 -6.11564,5.07514 -2.36321,3.16439 -3.62249,7.50061 -3.64016,12.5346 -0.006,1.77579 0.0273,2.17707 0.19087,2.28279 0.49365,0.31906 0.66341,0.098 1.3756,-1.79149 1.41854,-3.76341 2.61443,-6.05212 4.30603,-8.2409 1.06117,-1.37306 2.89012,-3.12032 4.12673,-3.94242 1.33963,-0.89058 3.51339,-1.87735 4.92376,-2.23512 2.57643,-0.65357 5.95902,-0.6876 6.46315,-0.065 0.30825,0.38067 0.298,0.67674 -0.0382,1.10416 -0.27077,0.34423 -0.29533,0.34857 -1.97273,0.34857 -1.74764,0 -3.05564,0.1853 -4.53643,0.64267 -4.95939,1.5318 -8.90032,5.98206 -11.38345,12.85466 -0.90404,2.50211 -0.90804,2.23293 0.0486,3.26839 0.57053,0.61754 1.00302,1.26453 1.3943,2.08584 0.70482,1.47947 0.91431,2.60143 0.79709,4.26903 l -0.0874,1.24382 1.49175,1.42749 1.49175,1.42749 -0.47072,0.19743 c -0.2589,0.10859 -0.88805,0.30494 -1.39812,0.43634 l -0.92739,0.2389 -1.2017,-0.69354 -1.20169,-0.69354 -0.69842,0.2074 c -1.91041,0.56733 -4.39998,0.0438 -6.19971,-1.30381 -0.25085,-0.18783 -0.49422,-0.29671 -0.54083,-0.24196 -0.0466,0.0547 -0.21903,0.47815 -0.38315,0.9409 -0.16412,0.46275 -0.46066,1.1176 -0.65899,1.45521 -0.3974,0.67651 -0.61699,0.76995 -1.87233,0.79663 -1.94153,0.0413 -3.49272,0.64453 -4.79166,1.8635 -1.53506,1.44055 -2.40351,3.42246 -2.59368,5.91907 -0.10708,1.40581 -0.12571,1.46629 -1.234783,4.00704 -1.5654,3.58617 -3.36234,7.26507 -4.20012,8.59896 -0.38844,0.61846 -0.70154,1.21623 -0.69579,1.32837 0.006,0.11214 0.64639,1.86831 1.42364,3.9026 1.78567,4.67366 2.83319,7.59653 3.05608,8.52736 0.19301,0.80609 0.18566,0.9032 -0.49085,6.48229 -0.46364,3.82364 -0.9471,6.32858 -1.76933,9.16753 -1.13857,3.93116 -1.64851,4.71455 -2.57863,3.96139 z m 31.215833,-3.87898 c -0.81557,-0.36993 -2.423,-1.59467 -3.36047,-2.56041 -1.70771,-1.75921 -2.93547,-3.63288 -5.08558,-7.76107 -1.13543,-2.18002 -1.25392,-2.35396 -1.86046,-2.731 -1.09775,-0.6824 -1.21652,-0.99688 -2.87943,-7.62433 -2.44734,-9.75372 -2.10561,-8.64939 -2.81091,-9.08377 -0.78444,-0.48311 -0.97016,-0.82781 -1.34192,-2.49058 -0.16866,-0.75434 -0.39982,-1.48424 -0.5137,-1.62201 -0.11389,-0.13776 -0.60399,-0.35954 -1.08913,-0.49283 -1.85337,-0.50924 -3.31256,-1.89868 -3.837,-3.65361 -0.44634,-1.49354 -0.53311,-4.24695 -0.17714,-5.62069 0.48655,-1.87767 1.6452,-3.47028 3.01132,-4.13921 1.06579,-0.52186 2.37848,-0.62876 7.72117,-0.62876 4.28129,0 4.79351,0.0225 4.86682,0.2135 0.0451,0.11743 0.0796,3.91339 0.0767,8.43546 -0.006,9.26914 -0.10266,8.3019 1.10838,11.08111 0.33737,0.77422 0.6134,1.52211 0.6134,1.66197 0,0.29985 -0.54941,0.84509 -1.16429,1.15546 -0.3034,0.15315 -0.41651,0.28898 -0.3706,0.44505 0.0847,0.28801 0.64028,2.76181 1.13486,5.05328 0.21201,0.98227 0.5078,2.30914 0.65733,2.94861 0.34634,1.48121 0.34035,1.86139 -0.0422,2.67379 -0.36287,0.77066 -0.74874,1.2089 -1.43883,1.63412 -0.27285,0.16813 -0.49609,0.32475 -0.49609,0.34806 0,0.15023 1.25749,2.65321 2.02823,4.03709 2.04437,3.67072 3.26977,5.19696 5.34482,6.65704 1.55418,1.09358 1.74925,1.43059 1.16577,2.01407 -0.39127,0.39127 -0.49862,0.3955 -1.26106,0.0497 z m 14.48421,-26.33397 c -0.14552,-0.082 -0.91942,-0.57658 -1.71979,-1.09912 -5.22342,-3.41024 -11.67278,-6.02933 -16.47031,-6.6886 -0.61846,-0.085 -1.33284,-0.19619 -1.5875,-0.24712 l -0.46302,-0.0926 -0.0342,-7.03677 -0.0342,-7.03677 0.36496,-0.0817 c 4.89602,-1.09596 8.89181,-2.65042 13.34163,-5.1902 1.72891,-0.98679 4.50595,-2.77477 5.85637,-3.77058 1.09819,-0.80981 1.68256,-0.81002 2.11358,-7.5e-4 0.10916,0.20496 0.1539,1.73589 0.1539,5.26604 v 4.97707 l 0.62838,0.27373 c 0.8563,0.37302 1.79217,1.09957 2.2657,1.75895 1.06369,1.48116 1.25768,3.86603 0.4479,5.50652 -0.49781,1.00851 -1.39427,1.92246 -2.48209,2.53054 l -0.79375,0.4437 -0.0661,4.98491 c -0.0632,4.76355 -0.0779,4.99645 -0.33073,5.24469 -0.34159,0.33538 -0.8556,0.44678 -1.19063,0.25805 z m 14.37671,-3.33049 c -0.44618,-0.47493 -0.36796,-0.97978 0.28051,-1.81048 2.57528,-3.29901 4.00415,-7.69356 3.74221,-11.50937 -0.24766,-3.60781 -1.46583,-6.89317 -3.58079,-9.6573 -0.83827,-1.09557 -0.91336,-1.27609 -0.72251,-1.73685 0.18844,-0.45494 0.48734,-0.6444 1.01662,-0.6444 0.44505,0 0.87742,0.41769 1.84873,1.78594 4.49771,6.33583 4.6061,15.31829 0.26252,21.75521 -1.02862,1.52435 -1.6314,2.12344 -2.13654,2.12344 -0.27122,0 -0.52636,-0.10992 -0.71075,-0.30619 z m -2.93348,-2.86881 c -0.47436,-0.47437 -0.34496,-1.0093 0.54405,-2.24896 0.44352,-0.61846 0.9421,-1.39237 1.10794,-1.71979 0.3982,-0.78613 0.92294,-2.48346 1.1279,-3.64832 0.22923,-1.30271 0.10458,-3.79293 -0.26105,-5.21522 -0.35389,-1.37665 -1.2526,-3.22671 -2.12308,-4.37049 -0.75717,-0.99491 -0.87086,-1.64079 -0.37081,-2.10665 0.71294,-0.66421 1.48698,-0.15734 2.67126,1.74926 2.34589,3.77669 2.90268,8.45266 1.51354,12.71082 -0.51341,1.57376 -1.60803,3.51794 -2.59705,4.61267 -0.53128,0.58806 -1.16788,0.68149 -1.6127,0.23668 z m -2.64583,-2.73764 c -0.62718,-0.22415 -0.7005,-1.08657 -0.15639,-1.83965 1.93302,-2.67542 2.25734,-5.75761 0.90295,-8.58108 -0.24554,-0.51188 -0.63303,-1.16212 -0.86109,-1.44498 -0.73637,-0.91333 -0.43762,-1.93311 0.56631,-1.93311 0.37268,0 0.54793,0.10923 1.00097,0.62392 0.63339,0.71956 1.30265,2.05327 1.74484,3.47712 0.26486,0.85282 0.30718,1.26163 0.30132,2.91042 -0.006,1.78214 -0.0358,2.00497 -0.41564,3.14094 -0.4362,1.30457 -1.42074,3.02678 -1.98333,3.46931 -0.33325,0.26214 -0.69779,0.32083 -1.09994,0.17711 z M 94.872487,124.87928 c -7.38907,-7.09264 -12.70853,-11.07314 -21.73502,-16.26409 -1.81339,-1.04284 -1.71395,-0.88878 -2.29277,-3.55225 -0.47261,-2.17473 -0.49204,-4.61279 -0.0469,-5.886983 0.37813,-1.08238 0.78103,-1.6156 1.57213,-2.08064 0.56244,-0.33062 0.7412,-0.3657 1.81453,-0.35612 1.76657,0.0158 3.2206,0.60316 5.7713,2.33143 5.46431,3.702433 11.45737,11.269453 16.84736,21.272003 1.63275,3.03 2.84748,5.3845 2.84748,5.51923 0,0.10147 -0.64899,0.37955 -2.45832,1.05333 -0.0788,0.0293 -1.12268,-0.88683 -2.31979,-2.03591 z"/>
    </g>
  </g>
</svg>
